<svg xmlns="http://www.w3.org/2000/svg" width="161" height="48" fill="none"><g clip-path="url(#a)"><path fill="#121212" d="M28.5 9.7a9.7 9.7 0 1 0-19.3 0H13a5.8 5.8 0 0 1 11.6 0h3.9Z"/><path fill="#FF5634" d="M31.7 9.2H6.2A6.2 6.2 0 0 0 0 15.4v25.5c0 3.4 2.8 6.2 6.2 6.2h25.5c3.5 0 6.3-2.8 6.3-6.2V15.4c0-3.5-2.8-6.2-6.3-6.2Z"/><path fill="#fff" d="M31.6 28a12.6 12.6 0 0 1-25.2 0h5a7.6 7.6 0 1 0 15.1 0h5Z"/><path fill="#121212" d="M47.9 34.1h6.3c6 0 10.2-3.7 10.2-8.8 0-5.2-4.3-8.8-10.2-8.8H48V34Zm3.8-3.4V19.9h3c3.4 0 5.8 2.2 5.8 5.4 0 3.1-2.4 5.4-5.8 5.4h-3Zm21.8.4c-1.6 0-2.8-1-3.2-2.4h9.6c0-5-2.5-8.2-6.6-8.2a6.7 6.7 0 0 0-6.9 7c0 4 3.1 7 7 7 2 0 4.3-.9 5.5-2.1l-2.4-2.5c-.7.7-2 1.2-3 1.2Zm0-7.3c1.4 0 2.4.9 2.8 2.2h-6a3.2 3.2 0 0 1 3.1-2.2Zm9 10.3h3.7v-18h-3.8v18ZM91.2 19a2 2 0 0 0 0-4 2 2 0 0 0-2 2c0 1 .9 2 2 2Zm-1.9 15.1h3.8V20.8h-3.8v13.3Zm11.5 0h3.5l5.6-13.3h-3.9l-3.5 9-3.5-9h-4l5.8 13.3Zm16.6-3c-1.6 0-2.7-1-3.2-2.4h9.6c0-5-2.4-8.2-6.6-8.2a6.7 6.7 0 0 0-6.8 7c0 4 3 7 7 7 2 0 4.2-.9 5.4-2.1l-2.4-2.5c-.7.7-2 1.2-3 1.2Zm0-7.3c1.5 0 2.4.9 2.8 2.2h-6a3.2 3.2 0 0 1 3.2-2.2Zm12.7-.5v-2.5h-3.8v13.3h3.8v-6.3c0-2.5 1.8-4.1 4.5-4.1v-3.2a5 5 0 0 0-4.5 2.8Zm30-6.8H156l-4.3 5.7-4.2-5.7h-4.5l6.5 8.8-6.5 8.8h4.4l4.3-5.8 4.2 5.8h4.5l-6.5-8.9 6.5-8.7Z"/></g><defs><clipPath id="a"><path fill="#fff" d="M0 0h161v48H0z"/></clipPath></defs></svg>