<svg xmlns="http://www.w3.org/2000/svg" width="239" height="45" fill="none"><path stroke="#929292" stroke-linecap="round" stroke-linejoin="round" stroke-width="3.9" d="M21.4 3.6 5.5 33.4A3.5 3.5 0 0 0 7 38.2a37.7 37.7 0 0 0 34 0 3.5 3.5 0 0 0 1.6-4.8L26.7 3.6a3 3 0 0 0-5.3 0Z"/><path stroke="#929292" stroke-linecap="round" stroke-linejoin="round" stroke-width="3.9" d="M40.2 29.2a37 37 0 0 1-32.3 0M19.4 23.7v1.5M28.7 23.7v1.5M24 14.4V16"/><path fill="#929292" d="m79.8 32-5.6-8.1a7.5 7.5 0 0 0 5.2-7.2c0-4.6-3.7-7.8-8.7-7.8H60.4v23h4.9v-7.4h3.6l5.3 7.4h5.6ZM65.3 13.3h4.9c2.4 0 4.1 1.3 4.1 3.3 0 2-1.7 3.2-4.1 3.2h-4.9v-6.5ZM91.1 28c-2 0-3.6-1.3-4.1-3.1h12.5c0-6.6-3.2-10.7-8.6-10.7-5 0-9 3.8-9 9 0 5.3 4 9.1 9.2 9.1 2.6 0 5.6-1 7-2.7l-3-3.1c-1 .9-2.6 1.5-4 1.5Zm0-9.5c2 0 3.2 1.1 3.7 2.8H87a4.2 4.2 0 0 1 4-2.8Zm18.2 13.8c4.2 0 7-2.2 7-5.6 0-3.7-3.3-4.8-6.3-5.5-2.3-.7-3-1-3-1.9 0-.6.8-1 2-1 1.5 0 3.3.6 4.8 1.5l2-3.4c-1.9-1.3-4.3-2.2-6.8-2.2-4 0-6.8 2.4-6.8 5.6 0 3.5 2.8 4.4 6.4 5.3 1.7.5 3 .8 3 1.9 0 .7-1 1.3-2.2 1.3-2.3 0-4.3-.9-5.8-2l-2.1 3.4c2 1.7 5 2.6 7.8 2.6Zm19.4-4.7c-.4.4-1 .6-1.7.6-1 0-1.6-.8-1.6-2v-7.6h3.7v-4h-3.7V10h-4.7v4.7h-2.4v4h2.4V27c0 3.1 2.1 5.3 5.2 5.3 1.4 0 3-.6 4-1.5l-1.2-3.2Zm12-13.4c-2.5 0-4.9.7-7.3 2l1.6 3.2a9.9 9.9 0 0 1 4.5-1.3c2.9 0 4 1.6 4 3.5v.3c-1.5-.6-3-.9-4.4-.9-4 0-7.2 2.4-7.2 5.8 0 3.3 2.8 5.5 6.5 5.5 1.9 0 3.9-.7 5.1-2.1v1.7h4.7V21.6c0-4.5-3-7.4-7.6-7.4ZM139.4 29c-1.6 0-2.9-.8-2.9-2.2 0-1.4 1.4-2.5 3.2-2.5 1.3 0 2.6.3 3.7.7v1.6c-.3 1.6-2.1 2.4-4 2.4Zm24.3-14.3V25v-.1c0 1.8-1.6 3.3-3.6 3.3s-3.3-1.5-3.3-3.6v-10h-4.7v11c0 4 2.7 6.7 6.4 6.7 2.2 0 4.2-1 5.2-2.6V32h5V14.6h-5Zm14 3.2v-3.2h-4.9V32h4.9v-8.2c0-3.3 2.3-5.4 6-5.4v-4a6.5 6.5 0 0 0-6 3.5Zm16.5-3.6c-2.4 0-4.8.7-7.3 2l1.7 3.2a9.9 9.9 0 0 1 4.5-1.3c2.8 0 4 1.6 4 3.5v.3c-1.5-.6-3-.9-4.5-.9-4 0-7.2 2.4-7.2 5.8 0 3.3 2.9 5.5 6.6 5.5 1.8 0 3.8-.7 5-2.1v1.7h4.8V21.6c0-4.5-3.1-7.4-7.6-7.4ZM193.2 29c-1.7 0-3-.8-3-2.2 0-1.4 1.5-2.5 3.2-2.5 1.4 0 2.6.3 3.7.7v1.6c-.3 1.6-2 2.4-4 2.4ZM216 14.2c-2.3 0-4.2 1-5.2 2.6v-2.2h-5V32h5V21.6c0-1.8 1.6-3.3 3.6-3.3s3.3 1.5 3.3 3.6v10h4.7V21c0-3.9-2.7-6.7-6.4-6.7Zm19.6 13.4c-.3.4-1 .6-1.6.6-1 0-1.7-.8-1.7-2v-7.6h3.8v-4h-3.8V10h-4.7v4.7h-2.3v4h2.3V27c0 3.1 2.2 5.3 5.2 5.3 1.4 0 3-.6 4-1.5l-1.2-3.2Z"/></svg>