<svg xmlns="http://www.w3.org/2000/svg" width="239" height="43" fill="none"><path stroke="#929292" stroke-linecap="round" stroke-linejoin="round" stroke-width="4.5" d="M23 40a18.8 18.8 0 0 0 18.7-18.8H4.2A18.8 18.8 0 0 0 23 40ZM24.4 15.4l8.7-13M28.8 16.9l10-8.7"/><path fill="#929292" d="m80 34-5.7-8.1a7.5 7.5 0 0 0 5.2-7.2c0-4.6-3.6-7.8-8.6-7.8H60.5v23h5v-7.4H69l5.2 7.4H80ZM65.4 15.3h5c2.4 0 4 1.3 4 3.3 0 2-1.6 3.2-4 3.2h-5v-6.5ZM91.2 30c-2 0-3.5-1.3-4-3.1h12.4c0-6.6-3.2-10.7-8.6-10.7-5 0-8.9 3.8-8.9 9 0 5.3 4 9.1 9.2 9.1 2.5 0 5.5-1 7-2.7l-3-3.1c-1 .9-2.7 1.5-4 1.5Zm0-9.5c2 0 3.3 1.1 3.7 2.8h-7.7a4.2 4.2 0 0 1 4-2.8Zm18.2 13.8c4.3 0 7-2.2 7-5.6 0-3.7-3.3-4.8-6.3-5.5-2.3-.7-3-1-3-1.9 0-.6.8-1 2-1 1.5 0 3.3.6 4.9 1.5l2-3.4c-2-1.3-4.4-2.2-6.9-2.2-4 0-6.8 2.4-6.7 5.6 0 3.5 2.8 4.4 6.3 5.3 1.8.5 3 .8 3 1.9 0 .7-.9 1.3-2.2 1.3-2.3 0-4.2-.9-5.8-2l-2 3.4c2 1.7 5 2.6 7.7 2.6Zm19.4-4.7c-.3.4-1 .6-1.7.6-.9 0-1.6-.8-1.6-2v-7.6h3.7v-4h-3.7V12h-4.7v4.7h-2.4v4h2.4V29c0 3.1 2.2 5.3 5.2 5.3 1.4 0 3-.6 4-1.5l-1.2-3.2Zm12-13.4c-2.4 0-4.8.7-7.3 2l1.7 3.2a9.9 9.9 0 0 1 4.5-1.3c2.8 0 4 1.6 4 3.5v.3c-1.5-.6-3-.9-4.5-.9-4 0-7.2 2.4-7.2 5.8 0 3.3 2.9 5.5 6.6 5.5 1.8 0 3.8-.7 5-2.1v1.7h4.8V23.6c0-4.5-3.1-7.4-7.6-7.4ZM139.7 31c-1.7 0-3-.8-3-2.2 0-1.4 1.5-2.5 3.2-2.5 1.4 0 2.7.3 3.8.7v1.6c-.4 1.6-2.2 2.4-4 2.4ZM164 16.6V27v-.1c0 1.8-1.6 3.3-3.7 3.3-2 0-3.3-1.5-3.3-3.6v-10h-4.7v11c0 4 2.7 6.7 6.5 6.7 2.2 0 4.1-1 5.2-2.6V34h4.9V16.6h-5Zm14 3.2v-3.2h-5V34h5v-8.2c0-3.3 2.2-5.4 5.9-5.4v-4a6.5 6.5 0 0 0-6 3.5Zm16.4-3.6c-2.4 0-4.8.7-7.2 2l1.6 3.2a9.9 9.9 0 0 1 4.5-1.3c2.8 0 4 1.6 4 3.5v.3c-1.5-.6-3-.9-4.4-.9-4 0-7.2 2.4-7.2 5.8 0 3.3 2.8 5.5 6.5 5.5 1.9 0 3.9-.7 5-2.1v1.7h4.8V23.6c0-4.5-3-7.4-7.6-7.4Zm-1 14.7c-1.8 0-3-.8-3-2.2 0-1.4 1.4-2.5 3.2-2.5 1.3 0 2.6.3 3.7.7v1.6c-.3 1.6-2.1 2.4-4 2.4ZM216 16.2c-2.2 0-4.2 1-5.2 2.6v-2.2H206V34h5V23.6c0-1.8 1.5-3.3 3.6-3.3 1.9 0 3.2 1.5 3.2 3.6v10h4.8V23c0-3.9-2.7-6.7-6.5-6.7Zm19.7 13.4c-.3.4-1 .6-1.7.6-.9 0-1.6-.8-1.6-2v-7.6h3.7v-4h-3.7V12h-4.7v4.7h-2.4v4h2.4V29c0 3.1 2.1 5.3 5.2 5.3 1.4 0 3-.6 4-1.5l-1.2-3.2Z"/></svg>