<svg xmlns="http://www.w3.org/2000/svg" width="239" height="42" fill="none"><path stroke="#929292" stroke-linecap="round" stroke-linejoin="round" stroke-width="3.7" d="M35.2 19.4c3.9 0 7-3.9 7-8.7 0-4.8-3.1-8.7-7-8.7-3.8 0-7 3.9-7 8.7 0 4.8 3.2 8.7 7 8.7ZM35.2 19.4v20.3M14.6 2v37.7M21.9 2v7.2a7.2 7.2 0 1 1-14.5 0V2"/><path fill="#929292" d="m79.9 31-5.7-8.1a7.5 7.5 0 0 0 5.3-7.2c0-4.6-3.7-7.8-8.7-7.8H60.5v23h4.9v-7.4H69l5.3 7.4h5.6ZM65.4 12.3h4.9c2.4 0 4 1.3 4 3.3 0 2-1.6 3.2-4 3.2h-5v-6.5ZM91.2 27c-2 0-3.6-1.3-4.1-3.1h12.4c0-6.6-3.1-10.7-8.6-10.7-5 0-8.9 3.8-8.9 9 0 5.3 4 9.1 9.2 9.1 2.5 0 5.5-1 7-2.7l-3-3.1c-1 .9-2.7 1.5-4 1.5Zm0-9.5c2 0 3.2 1.1 3.6 2.8h-7.7a4.2 4.2 0 0 1 4-2.8Zm18.1 13.8c4.3 0 7-2.2 7-5.6 0-3.7-3.3-4.8-6.2-5.5-2.4-.7-3-1-3-1.9 0-.6.8-1 2-1 1.4 0 3.2.6 4.8 1.5l2-3.4c-2-1.3-4.4-2.2-6.8-2.2-4.1 0-6.8 2.4-6.8 5.6 0 3.5 2.8 4.4 6.3 5.3 1.8.5 3 .8 3 1.9 0 .7-.9 1.3-2.2 1.3-2.3 0-4.2-.9-5.8-2l-2 3.4c2 1.7 5 2.6 7.7 2.6Zm19.4-4.7c-.3.4-1 .6-1.6.6-1 0-1.7-.8-1.7-2v-7.6h3.8v-4h-3.8V9h-4.7v4.7h-2.3v4h2.3V26c0 3.1 2.2 5.3 5.2 5.3 1.4 0 3-.6 4-1.5l-1.2-3.2Zm12-13.4c-2.4 0-4.8.7-7.2 2l1.6 3.2a9.9 9.9 0 0 1 4.5-1.3c2.8 0 4 1.6 4 3.5v.3c-1.5-.6-3-.9-4.4-.9-4 0-7.2 2.4-7.2 5.8 0 3.3 2.8 5.5 6.5 5.5 1.9 0 3.8-.7 5-2.1v1.7h4.8V20.6c0-4.5-3-7.4-7.6-7.4ZM139.6 28c-1.7 0-3-.8-3-2.2 0-1.4 1.5-2.5 3.3-2.5 1.3 0 2.6.3 3.7.7v1.6c-.4 1.6-2.1 2.4-4 2.4Zm24.3-14.3V24v-.1c0 1.8-1.6 3.3-3.6 3.3s-3.3-1.5-3.3-3.6v-10h-4.7v11c0 4 2.6 6.7 6.4 6.7 2.2 0 4.2-1 5.2-2.6V31h4.9V13.6h-4.9Zm14 3.2v-3.2h-5V31h5v-8.2c0-3.3 2.3-5.4 5.9-5.4v-4a6.5 6.5 0 0 0-6 3.5Zm16.4-3.6c-2.4 0-4.7.7-7.2 2l1.6 3.2a9.9 9.9 0 0 1 4.5-1.3c2.9 0 4 1.6 4 3.5v.3c-1.5-.6-3-.9-4.4-.9-4 0-7.2 2.4-7.2 5.8 0 3.3 2.8 5.5 6.5 5.5 1.9 0 3.9-.7 5.1-2.1v1.7h4.7V20.6c0-4.5-3-7.4-7.6-7.4Zm-1 14.7c-1.7 0-3-.8-3-2.2 0-1.4 1.4-2.5 3.2-2.5 1.3 0 2.6.3 3.7.7v1.6c-.3 1.6-2 2.4-4 2.4ZM216 13.2c-2.3 0-4.2 1-5.3 2.6v-2.2H206V31h4.8V20.6c0-1.8 1.6-3.3 3.7-3.3 2 0 3.3 1.5 3.3 3.6v10h4.7V20c0-3.9-2.7-6.7-6.4-6.7Zm19.6 13.4c-.3.4-1 .6-1.7.6-.9 0-1.6-.8-1.6-2v-7.6h3.7v-4h-3.7V9h-4.7v4.7h-2.4v4h2.4V26c0 3.1 2.2 5.3 5.2 5.3 1.4 0 3-.6 4-1.5l-1.2-3.2Z"/></svg>